<svg xmlns="http://www.w3.org/2000/svg" width="256" height="256"><path fill-opacity=".016" d="M0 128.004v128.004l128.25-.254 128.25-.254.254-127.75L257.008 0H0v128.004m.485.496c0 70.4.119 99.053.265 63.672.146-35.38.146-92.98 0-128C.604 29.153.485 58.1.485 128.5" fill="#1976D2" fill-rule="evenodd"/><path fill-opacity=".091" d="M77.37 44c0 5.775.165 8.138.367 5.25.202-2.888.202-7.612 0-10.5s-.367-.525-.367 5.25M28.5 64c3.82 3.85 7.396 7 7.946 7 .55 0-2.126-3.15-5.946-7s-7.396-7-7.946-7c-.55 0 2.126 3.15 5.946 7m96 0c-3.82 3.85-6.496 7-5.946 7 .55 0 4.126-3.15 7.946-7 3.82-3.85 6.496-7 5.946-7-.55 0-4.126 3.15-7.946 7m4.987 14.743c-7.684 2.742-13.87 6.75-18.597 12.046l-4.297 4.813-6.07-6.191c-5.184-5.287-7.068-6.499-12.902-8.301-8.544-2.639-11.69-2.641-20.19-.016-17.439 5.386-26.981 25.671-20.377 43.32 2.62 7.004 9.435 14.593 15.829 17.629l4.991 2.37-4.022 4.364c-5.119 5.553-9.634 15.177-10.948 23.338-3.462 21.496 11.765 43.881 33.211 48.825 2.682.619 27.176 1.021 63.083 1.036l58.699.024 8.016-2.532c33.223-10.496 49.019-45.723 34.113-76.076-6.558-13.354-19.676-24.242-33.561-27.859-7.267-1.893-19.272-1.96-26.084-.146l-5.119 1.363-1.196-5.346c-2.906-12.987-13.054-25.741-24.785-31.153-7.649-3.529-22.086-4.26-29.794-1.508M4.75 112.737c2.888.202 7.613.202 10.5 0 2.888-.202.525-.367-5.25-.367s-8.137.165-5.25.367m24.221 47.792c-4.082 4.109-6.97 7.471-6.419 7.471 1.304 0 14.993-13.788 14.339-14.442-.275-.275-3.839 2.862-7.92 6.971" fill="#1976D2" fill-rule="evenodd"/><path fill-opacity=".04" d="M77.37 44c0 5.775.165 8.138.367 5.25.202-2.888.202-7.612 0-10.5s-.367-.525-.367 5.25M28.469 63c3.243 3.575 6.257 6.92 6.697 7.433.44.514 1.02.714 1.289.445.269-.268-2.745-3.613-6.697-7.433L22.573 56.5l5.896 6.5m96.031 1c-3.82 3.85-6.508 6.946-5.973 6.879.969-.12 14.221-13.879 13.368-13.879-.247 0-3.575 3.15-7.395 7m7.781 14.97c-8.807 2.093-18.387 8.79-25.077 17.53-1.263 1.65-2.008 2.412-1.656 1.692.853-1.74-3.638-8.396-7.814-11.581-6.274-4.786-12.157-6.722-20.42-6.722-6.528 0-8.566.453-13.938 3.097-6.87 3.383-11.939 8.559-15.55 15.878-1.862 3.776-2.29 6.305-2.306 13.636-.019 8.393.214 9.432 3.449 15.4 3.685 6.797 10.416 13.025 16.428 15.199l3.368 1.218-4.55 5.585c-2.502 3.072-5.711 8.064-7.131 11.092-2.307 4.919-2.582 6.731-2.583 17.006-.001 10.853.178 11.878 3.184 18.223 4.331 9.143 10.997 16.042 19.21 19.883 3.633 1.699 7.342 3.468 8.243 3.93.901.463 28.224.882 60.717.932 65.252.101 66.34.015 78.981-6.208 28.142-13.854 38.306-50.133 21.379-76.302-11.778-18.207-34.082-27.196-54.715-22.051-7.009 1.747-7.821 1.241-8.908-5.559-2.188-13.683-14.479-27.153-28.524-31.26-5.633-1.647-16.196-1.947-21.787-.618M4.784 112.738c2.905.203 7.405.201 10-.004 2.594-.206.216-.371-5.284-.369-5.5.003-7.622.171-4.716.373m26.143 46.012c-7.927 8.371-8.585 9.974-1.14 2.777 3.967-3.835 7.213-7.098 7.213-7.25 0-1.213-2.277.464-6.073 4.473" fill="#1976D2" fill-rule="evenodd"/><path fill-opacity=".219" d="M69 80.876c-9.686 3.185-18.65 11.638-21.638 20.404-2.272 6.664-2.272 15.776 0 22.44 2.291 6.723 9.606 14.894 15.973 17.844l4.875 2.259 4.54-2.88c6.469-4.102 13.2-6.084 21.317-6.276 6.97-.165 7.045-.196 6.497-2.667-2.497-11.257-1.273-22.77 3.393-31.915l1.999-3.918-4.621-5.139C94.854 83.819 88.43 80.752 79 80.363c-4.125-.169-8.625.061-10 .513" fill="#1976D2" fill-rule="evenodd"/></svg>