<?xml version="1.0" encoding="utf-8"?>
<!-- Generator: Adobe Illustrator 24.0.0, SVG Export Plug-In . SVG Version: 6.00 Build 0)  -->
<svg version="1.1" id="Livello_1" xmlns="http://www.w3.org/2000/svg" xmlns:xlink="http://www.w3.org/1999/xlink" x="0px" y="0px"
	 viewBox="0 0 64 64" style="enable-background:new 0 0 64 64;" xml:space="preserve">
<style type="text/css">
	.st0{fill:#84DBFF;}
	.st1{fill:#FFFFFF;}
</style>
<title>humidity</title>
<g>
	<path class="st0" d="M44.5,37.9c0,8.1-5.6,14.6-12.5,14.6S19.5,46,19.5,37.9S32,11.4,32,11.4S44.5,29.9,44.5,37.9z"/>
</g>
<path class="st1" d="M27.8,31.9c0.5,0,1.1,0.2,1.6,0.5c0.5,0.3,0.8,0.6,1.1,1.1c0.5,0.9,0.5,2,0,3c-0.3,0.5-0.6,0.8-1.1,1.1
	c-0.9,0.5-2,0.5-3.1,0c-0.5-0.3-0.8-0.6-1.1-1.1c-0.5-0.9-0.5-2,0-3c0.2-0.5,0.6-0.8,1.1-1.1C26.7,32.1,27.3,31.9,27.8,31.9z
	 M27.8,33.3c-0.5,0-0.8,0.2-1.1,0.5c-0.3,0.3-0.5,0.8-0.5,1.1c0,0.5,0.2,0.8,0.5,1.1c0.3,0.3,0.6,0.5,1.1,0.5c0.5,0,0.8-0.2,1.1-0.5
	c0.3-0.3,0.5-0.8,0.5-1.1c0-0.5-0.2-0.8-0.5-1.1C28.6,33.5,28.3,33.2,27.8,33.3L27.8,33.3z M35.3,31.9l1.1,0.5l-7.8,13.1l-1.1-0.6
	L35.3,31.9z M36.2,39.6c0.5,0,1.1,0.2,1.6,0.5c0.5,0.3,0.8,0.6,1.1,1.1c0.3,0.5,0.3,0.9,0.3,1.4c0,0.5-0.2,0.9-0.3,1.4
	c-0.3,0.5-0.6,0.8-1.1,1.1c-0.9,0.5-2,0.5-3.1,0c-0.5-0.3-0.8-0.6-1.1-1.1s-0.3-0.9-0.3-1.4c0-0.5,0.2-1.1,0.3-1.4
	c0.3-0.5,0.6-0.8,1.1-1.1C35.1,39.6,35.6,39.4,36.2,39.6L36.2,39.6z M36.2,40.8c-0.5,0-0.8,0.2-1.1,0.5c-0.3,0.3-0.5,0.8-0.5,1.1
	c0,0.5,0.2,0.8,0.5,1.1c0.3,0.3,0.6,0.5,1.1,0.5c0.5,0,0.8-0.2,1.1-0.5c0.3-0.3,0.5-0.8,0.5-1.1c0-0.5-0.2-0.8-0.5-1.1
	C37,41,36.7,40.8,36.2,40.8L36.2,40.8z"/>
</svg>
